<?xml version="1.0" encoding="UTF-8"?>
<svg width="537px" height="112px" viewBox="0 0 537 112" version="1.1" xmlns="http://www.w3.org/2000/svg" xmlns:xlink="http://www.w3.org/1999/xlink">
    <title>Group</title>
    <g id="Page-1" stroke="none" stroke-width="1" fill="none" fill-rule="evenodd">
        <g id="texas-star-logos_final" transform="translate(-190.000000, -124.000000)">
            <g id="Group" transform="translate(190.224400, 124.596900)">
                <polygon id="Fill-171" fill="#9B7849" points="114.0564 83.4988 119.4584 83.4988 131.9354 99.8938 131.9354 83.4988 137.7174 83.4988 137.7174 110.1268 132.7344 110.1268 119.8384 93.1988 119.8384 110.1268 114.0564 110.1268"></polygon>
                <path d="M142.9226,83.4986 L148.7806,83.4986 L148.7806,98.5626 C148.7806,102.8996 150.9486,105.1436 154.5256,105.1436 C158.1006,105.1436 160.2686,102.9756 160.2686,98.7526 L160.2686,83.4986 L166.1276,83.4986 L166.1276,98.5246 C166.1276,106.5896 161.6006,110.5456 154.4486,110.5456 C147.2976,110.5456 142.9226,106.5506 142.9226,98.7146 L142.9226,83.4986 Z" id="Fill-173" fill="#9B7849"></path>
                <polygon id="Fill-175" fill="#9B7849" points="177.5339 88.9002 169.4309 88.9002 169.4309 83.4992 191.4939 83.4992 191.4939 88.9002 183.3919 88.9002 183.3919 110.1272 177.5339 110.1272"></polygon>
                <path d="M217.7346,90.0795 C217.7346,88.5575 216.7076,87.6075 215.2236,87.6075 C213.6646,87.6075 212.6366,88.7105 212.6366,90.3075 L212.6366,90.3845 C212.6366,91.5635 213.0936,92.4385 214.1966,93.6935 C216.5176,92.8185 217.7346,91.8295 217.7346,90.1555 L217.7346,90.0795 Z M212.3326,99.0185 C210.5836,99.9315 209.8596,101.2255 209.8596,102.5185 L209.8596,102.5945 C209.8596,104.4585 211.4196,105.7145 213.5886,105.7145 C214.9196,105.7145 216.2136,105.1435 217.4306,104.1925 L212.3326,99.0185 Z M220.7016,107.5395 C218.5336,109.3275 215.9846,110.5075 212.9036,110.5075 C207.8056,110.5075 203.9636,107.5395 203.9636,102.8225 L203.9636,102.7465 C203.9636,99.3615 205.7896,96.9645 209.1376,95.4435 C207.8436,93.6175 207.2736,91.9435 207.2736,90.1175 L207.2736,90.0415 C207.2736,86.3895 210.2026,83.0425 215.3386,83.0425 C219.8646,83.0425 222.8316,86.0095 222.8316,89.7375 L222.8316,89.8135 C222.8316,93.3885 220.5496,95.4815 217.2396,96.7745 L220.7776,100.3125 C221.6526,98.9435 222.5276,97.3835 223.3646,95.7475 L227.6626,98.1065 C226.6356,99.9695 225.4946,101.9475 224.1636,103.7365 L228.0816,107.6545 L223.7826,110.6595 L220.7016,107.5395 Z" id="Fill-177" fill="#9B7849"></path>
                <polygon id="Fill-179" fill="#9B7849" points="242.2243 83.4988 262.4993 83.4988 262.4993 88.8238 248.0823 88.8238 248.0823 94.4928 260.7873 94.4928 260.7873 99.8178 248.0823 99.8178 248.0823 110.1268 242.2243 110.1268"></polygon>
                <path d="M287.4113,96.8129 C287.4113,92.2479 284.0643,88.4439 279.3473,88.4439 C274.6303,88.4439 271.3583,92.1719 271.3583,96.7369 L271.3583,96.8129 C271.3583,101.3779 274.7063,105.1809 279.4233,105.1809 C284.1403,105.1809 287.4113,101.4529 287.4113,96.8889 L287.4113,96.8129 Z M265.2343,96.8129 C265.2343,89.2429 271.2063,83.0419 279.4233,83.0419 C287.6403,83.0419 293.5363,89.1669 293.5363,96.7369 L293.5363,96.8129 C293.5363,104.3829 287.5633,110.5829 279.3473,110.5829 C271.1303,110.5829 265.2343,104.4589 265.2343,96.8889 L265.2343,96.8129 Z" id="Fill-181" fill="#9B7849"></path>
                <path d="M318.9782,96.8129 C318.9782,92.2479 315.6312,88.4439 310.9142,88.4439 C306.1972,88.4439 302.9252,92.1719 302.9252,96.7369 L302.9252,96.8129 C302.9252,101.3779 306.2732,105.1809 310.9902,105.1809 C315.7072,105.1809 318.9782,101.4529 318.9782,96.8889 L318.9782,96.8129 Z M296.8012,96.8129 C296.8012,89.2429 302.7732,83.0419 310.9902,83.0419 C319.2072,83.0419 325.1032,89.1669 325.1032,96.7369 L325.1032,96.8129 C325.1032,104.3829 319.1302,110.5829 310.9142,110.5829 C302.6972,110.5829 296.8012,104.4589 296.8012,96.8889 L296.8012,96.8129 Z" id="Fill-183" fill="#9B7849"></path>
                <path d="M339.9323,104.8391 C344.7253,104.8391 347.9583,101.6061 347.9583,96.8891 L347.9583,96.8131 C347.9583,92.0951 344.7253,88.7861 339.9323,88.7861 L335.4053,88.7861 L335.4053,104.8391 L339.9323,104.8391 Z M329.5473,83.4991 L339.9323,83.4991 C348.3013,83.4991 354.0833,89.2421 354.0833,96.7361 L354.0833,96.8131 C354.0833,104.3061 348.3013,110.1271 339.9323,110.1271 L329.5473,110.1271 L329.5473,83.4991 Z" id="Fill-185" fill="#9B7849"></path>
                <path d="M367.9973,96.8129 C367.9973,89.2429 373.7033,83.0419 381.8823,83.0419 C386.9033,83.0419 389.9083,84.7159 392.3813,87.1509 L388.6533,91.4489 C386.5993,89.5849 384.5063,88.4439 381.8443,88.4439 C377.3553,88.4439 374.1223,92.1719 374.1223,96.7369 L374.1223,96.8129 C374.1223,101.3779 377.2793,105.1809 381.8443,105.1809 C384.8873,105.1809 386.7513,103.9639 388.8433,102.0619 L392.5713,105.8279 C389.8323,108.7569 386.7893,110.5829 381.6533,110.5829 C373.8173,110.5829 367.9973,104.5349 367.9973,96.8889 L367.9973,96.8129 Z" id="Fill-187" fill="#9B7849"></path>
                <path d="M416.7214,96.8129 C416.7214,92.2479 413.3744,88.4439 408.6574,88.4439 C403.9404,88.4439 400.6684,92.1719 400.6684,96.7369 L400.6684,96.8129 C400.6684,101.3779 404.0164,105.1809 408.7334,105.1809 C413.4504,105.1809 416.7214,101.4529 416.7214,96.8889 L416.7214,96.8129 Z M394.5444,96.8129 C394.5444,89.2429 400.5164,83.0419 408.7334,83.0419 C416.9504,83.0419 422.8464,89.1669 422.8464,96.7369 L422.8464,96.8129 C422.8464,104.3829 416.8734,110.5829 408.6574,110.5829 C400.4404,110.5829 394.5444,104.4589 394.5444,96.8889 L394.5444,96.8129 Z" id="Fill-189" fill="#9B7849"></path>
                <polygon id="Fill-191" fill="#9B7849" points="424.9326 110.1261 431.0956 110.1261 431.0956 104.0401 424.9326 104.0401"></polygon>
                <path d="M432.7331,86.3264 L434.3741,86.3264 L436.1701,89.2084 L437.9651,86.3264 L439.5621,86.3264 L439.5621,93.1554 L438.0981,93.1554 L438.0981,88.5434 L436.2141,91.5364 L436.0811,91.5364 L434.1961,88.5434 L434.1961,93.1554 L432.7331,93.1554 L432.7331,86.3264 Z M427.7001,87.7014 L425.6611,87.7014 L425.6611,86.3264 L431.2921,86.3264 L431.2921,87.7014 L429.2521,87.7014 L429.2521,93.1554 L427.7001,93.1554 L427.7001,87.7014 Z" id="Fill-193" fill="#9B7849"></path>
                <polygon id="Fill-194" fill="#9B7849" points="5.4328 96.4749 99.2038 92.1559 99.2038 100.5059"></polygon>
                <polygon id="Fill-195" fill="#9B7849" points="535.7893 96.5276 445.4243 100.5066 445.4243 92.8136"></polygon>
                <polygon id="Fill-196" fill="#1F1A17" points="18.009 12.8518 0 12.8518 0 0.8458 49.038 0.8458 49.038 12.8518 31.03 12.8518 31.03 60.0298 18.009 60.0298"></polygon>
                <polygon id="Fill-197" fill="#1F1A17" points="57.3239 0.846 101.9659 0.846 101.9659 12.429 70.2599 12.429 70.2599 24.435 98.1609 24.435 98.1609 36.018 70.2599 36.018 70.2599 48.447 102.3879 48.447 102.3879 60.03 57.3239 60.03"></polygon>
                <polygon id="Fill-198" fill="#1F1A17" points="128.4299 29.9304 108.6449 0.8464 123.8649 0.8464 136.2079 20.0384 148.8059 0.8464 163.6019 0.8464 143.8179 29.7614 164.4479 60.0304 149.2289 60.0304 135.9549 39.7384 122.5959 60.0304 107.7999 60.0304"></polygon>
                <path d="M204.7785,35.2571 L196.9155,16.0651 L189.0525,35.2571 L204.7785,35.2571 Z M191.0815,0.4231 L203.0875,0.4231 L228.4525,60.0301 L214.8405,60.0301 L209.4285,46.7561 L184.4025,46.7561 L178.9905,60.0301 L165.7165,60.0301 L191.0815,0.4231 Z" id="Fill-199" fill="#1F1A17"></path>
                <path d="M238.6825,42.19 C244.0095,46.587 249.5895,49.377 256.3525,49.377 C261.6795,49.377 264.8925,47.263 264.8925,43.797 L264.8925,43.628 C264.8925,40.33 262.8635,38.639 252.9705,36.103 C241.0495,33.059 233.3555,29.761 233.3555,18.009 L233.3555,17.84 C233.3555,7.102 241.9795,0 254.0705,0 C262.6945,0 270.0505,2.706 276.0525,7.525 L269.2885,17.333 C264.0475,13.697 258.8895,11.499 253.9015,11.499 C248.9125,11.499 246.2915,13.782 246.2915,16.656 L246.2915,16.825 C246.2915,20.715 248.8285,21.983 259.0585,24.604 C271.0645,27.732 277.8285,32.044 277.8285,42.359 L277.8285,42.529 C277.8285,54.281 268.8665,60.876 256.0995,60.876 C247.1365,60.876 238.0905,57.747 230.9885,51.406 L238.6825,42.19 Z" id="Fill-200" fill="#1F1A17"></path>
                <path d="M314.7762,42.19 C320.1032,46.587 325.6832,49.377 332.4462,49.377 C337.7732,49.377 340.9862,47.263 340.9862,43.797 L340.9862,43.628 C340.9862,40.33 338.9572,38.639 329.0642,36.103 C317.1432,33.059 309.4492,29.761 309.4492,18.009 L309.4492,17.84 C309.4492,7.102 318.0732,0 330.1642,0 C338.7882,0 346.1442,2.706 352.1462,7.525 L345.3822,17.333 C340.1412,13.697 334.9832,11.499 329.9952,11.499 C325.0062,11.499 322.3852,13.782 322.3852,16.656 L322.3852,16.825 C322.3852,20.715 324.9222,21.983 335.1522,24.604 C347.1582,27.732 353.9222,32.044 353.9222,42.359 L353.9222,42.529 C353.9222,54.281 344.9602,60.876 332.1932,60.876 C323.2302,60.876 314.1842,57.747 307.0822,51.406 L314.7762,42.19 Z" id="Fill-201" fill="#1F1A17"></path>
                <polygon id="Fill-202" fill="#1F1A17" points="376.0749 12.8518 358.0659 12.8518 358.0659 0.8458 407.1039 0.8458 407.1039 12.8518 389.0959 12.8518 389.0959 60.0298 376.0749 60.0298"></polygon>
                <path d="M441.7693,35.2571 L433.9063,16.0651 L426.0433,35.2571 L441.7693,35.2571 Z M428.0723,0.4231 L440.0783,0.4231 L465.4433,60.0301 L451.8313,60.0301 L446.4193,46.7561 L421.3933,46.7561 L415.9813,60.0301 L402.7073,60.0301 L428.0723,0.4231 Z" id="Fill-203" fill="#1F1A17"></path>
                <path d="M499.093,29.5926 C505.435,29.5926 509.07,26.2106 509.07,21.2216 L509.07,21.0526 C509.07,15.4726 505.181,12.5976 498.839,12.5976 L485.904,12.5976 L485.904,29.5926 L499.093,29.5926 Z M472.883,0.8456 L499.939,0.8456 C507.464,0.8456 513.297,2.9596 517.187,6.8486 C520.485,10.1466 522.26,14.7966 522.26,20.3766 L522.26,20.5456 C522.26,30.0996 517.102,36.1026 509.577,38.8926 L524.035,60.0296 L508.817,60.0296 L496.134,41.0916 L485.904,41.0916 L485.904,60.0296 L472.883,60.0296 L472.883,0.8456 Z" id="Fill-204" fill="#1F1A17"></path>
                <polygon id="Fill-205" fill="#1F1A17" points="475.1096 25.8777 463.1936 31.8357 476.3006 38.9857"></polygon>
                <polygon id="Fill-206" fill="#1F1A17" points="377.3059 25.8777 365.3899 31.8357 378.4979 38.9857"></polygon>
                <polygon id="Fill-207" fill="#1F1A17" points="387.7556 25.8777 399.6716 31.8357 386.5636 38.9857"></polygon>
                <polygon id="Fill-208" fill="#1F1A17" points="18.3571 25.8777 6.4411 31.8357 19.5491 38.9857"></polygon>
                <polygon id="Fill-209" fill="#1F1A17" points="58.6887 25.8777 46.7727 31.8357 59.8797 38.9857"></polygon>
                <polygon id="Fill-210" fill="#1F1A17" points="177.6657 34.9524 165.7497 40.9104 178.8577 48.0594"></polygon>
                <polygon id="Fill-211" fill="#1F1A17" points="216.3474 33.9441 228.2634 39.9021 215.1564 47.0511"></polygon>
                <polygon id="Fill-212" fill="#1F1A17" points="413.6042 34.9524 401.6882 40.9104 414.7952 48.0594"></polygon>
                <polygon id="Fill-213" fill="#1F1A17" points="452.2854 33.9441 464.2024 39.9021 451.0944 47.0511"></polygon>
            </g>
        </g>
    </g>
</svg>