<?xml version="1.0" encoding="UTF-8"?>
<svg width="268px" height="268px" viewBox="0 0 268 268" version="1.1" xmlns="http://www.w3.org/2000/svg" xmlns:xlink="http://www.w3.org/1999/xlink">
    <title>Group 81</title>
    <defs>
        <filter id="filter-1">
            <feColorMatrix in="SourceGraphic" type="matrix" values="0 0 0 0 0.847000 0 0 0 0 0.847000 0 0 0 0 0.847000 0 0 0 1.000000 0"></feColorMatrix>
        </filter>
    </defs>
    <g id="Page-1" stroke="none" stroke-width="1" fill="none" fill-rule="evenodd">
        <g filter="url(#filter-1)" id="Group-81">
            <g transform="translate(3.000000, 2.000000)">
                <polygon id="Fill-1" fill="#9B7849" points="186.2368 102.1917 180.2578 103.3117 174.6478 99.5727 157.8268 103.3117 143.2498 100.6957 139.1388 97.7067 132.7828 99.5727 122.3158 89.6637 122.3158 86.4047 122.3158 65.5587 86.0578 65.5587 86.0578 126.1127 46.4348 126.1127 81.1998 170.2217 91.6678 163.8687 92.7888 158.2607 106.2448 161.2497 118.9528 182.1857 122.3158 184.3697 131.2868 204.6117 157.4528 213.2097 153.3438 200.5017 154.4638 189.2847 163.4358 172.4657 167.0908 172.1117 152.7298 164.5617 129.2558 176.9037 133.7388 150.7637 114.7478 132.2527 140.9928 128.4377 152.7298 104.6557 164.4668 128.4377 190.7138 132.2527 171.7208 150.7637 175.2138 171.1257 182.8708 162.3737 187.7328 157.5117 189.9218 158.4697 195.2098 151.9047"></polygon>
                <polygon id="Fill-2" fill="#1F1A17" points="22.5248 103.9056 19.9728 112.2846 14.3868 110.5836 21.3338 87.7676 26.9208 89.4676 24.3688 97.8466 46.3188 104.5306 44.4748 110.5886"></polygon>
                <polygon id="Stroke-3" stroke="#1F1A17" stroke-width="0.448" points="22.5248 103.9056 19.9728 112.2846 14.3868 110.5836 21.3338 87.7676 26.9208 89.4676 24.3688 97.8466 46.3188 104.5306 44.4748 110.5886"></polygon>
                <polygon id="Fill-4" fill="#1F1A17" points="26.1498 77.8783 37.9138 59.6243 42.6498 62.6773 34.2958 75.6423 39.2048 78.8053 46.5568 67.3973 51.2928 70.4483 43.9398 81.8573 49.0218 85.1323 57.4888 71.9953 62.2248 75.0483 50.3498 93.4753"></polygon>
                <polygon id="Stroke-5" stroke="#1F1A17" stroke-width="0.448" points="26.1498 77.8783 37.9138 59.6243 42.6498 62.6773 34.2958 75.6423 39.2048 78.8053 46.5568 67.3973 51.2928 70.4483 43.9398 81.8573 49.0218 85.1323 57.4888 71.9953 62.2248 75.0483 50.3498 93.4753"></polygon>
                <polygon id="Fill-6" fill="#1F1A17" points="61.2436 55.9974 44.7646 51.3904 50.4226 46.6164 61.0316 49.8794 59.6956 38.7924 65.1956 34.1514 66.9106 51.1074 84.0746 55.8894 78.4176 60.6634 67.1176 57.2834 68.5156 69.0174 63.0146 73.6584"></polygon>
                <polygon id="Stroke-7" stroke="#1F1A17" stroke-width="0.448" points="61.2436 55.9974 44.7646 51.3904 50.4226 46.6164 61.0316 49.8794 59.6956 38.7924 65.1956 34.1514 66.9106 51.1074 84.0746 55.8894 78.4176 60.6634 67.1176 57.2834 68.5156 69.0174 63.0146 73.6584"></polygon>
                <path d="M96.5102,37.5775 L89.4162,30.4015 L89.4382,40.4935 L96.5102,37.5775 Z M83.8932,24.4495 L89.2922,22.2235 L111.7492,44.3305 L105.6272,46.8545 L100.7332,41.8865 L89.4772,46.5255 L89.5042,53.4995 L83.5332,55.9595 L83.8932,24.4495 Z" id="Fill-8" fill="#1F1A17"></path>
                <path d="M96.5102,37.5775 L89.4162,30.4015 L89.4382,40.4935 L96.5102,37.5775 Z M83.8932,24.4495 L89.2922,22.2235 L111.7492,44.3305 L105.6272,46.8545 L100.7332,41.8865 L89.4772,46.5255 L89.5042,53.4995 L83.5332,55.9595 L83.8932,24.4495 Z" id="Stroke-9" stroke="#1F1A17" stroke-width="0.448"></path>
                <g id="Group-80" transform="translate(0.000000, 0.418000)">
                    <path d="M111.6606,40.2083 L114.9746,35.4003 C117.7506,37.2913 120.5786,38.3933 123.8536,38.0903 C126.4336,37.8523 127.8946,36.6843 127.7406,35.0063 L127.7326,34.9243 C127.5856,33.3263 126.5266,32.5993 121.6226,31.8123 C115.7136,30.8733 111.8396,29.6203 111.3126,23.9283 L111.3056,23.8473 C110.8256,18.6463 114.6836,14.8203 120.5396,14.2793 C124.7166,13.8943 128.3986,14.8743 131.5216,16.9403 L128.6846,21.9923 C125.9836,20.4673 123.3886,19.6323 120.9716,19.8553 C118.5566,20.0783 117.3896,21.3023 117.5176,22.6933 L117.5246,22.7753 C117.6996,24.6593 118.9846,25.1603 124.0566,25.9723 C130.0106,26.9493 133.4786,28.7353 133.9406,33.7303 L133.9476,33.8123 C134.4736,39.5043 130.4296,43.0993 124.2466,43.6713 C119.9056,44.0723 115.3846,42.9613 111.6606,40.2083" id="Fill-10" fill="#1F1A17"></path>
                    <path d="M111.6606,40.2083 L114.9746,35.4003 C117.7506,37.2913 120.5786,38.3933 123.8536,38.0903 C126.4336,37.8523 127.8946,36.6843 127.7406,35.0063 L127.7326,34.9243 C127.5856,33.3263 126.5266,32.5993 121.6226,31.8123 C115.7136,30.8733 111.8396,29.6203 111.3126,23.9283 L111.3056,23.8473 C110.8256,18.6463 114.6836,14.8203 120.5396,14.2793 C124.7166,13.8943 128.3986,14.8743 131.5216,16.9403 L128.6846,21.9923 C125.9836,20.4673 123.3886,19.6323 120.9716,19.8553 C118.5566,20.0783 117.3896,21.3023 117.5176,22.6933 L117.5246,22.7753 C117.6996,24.6593 118.9846,25.1603 124.0566,25.9723 C130.0106,26.9493 133.4786,28.7353 133.9406,33.7303 L133.9476,33.8123 C134.4736,39.5043 130.4296,43.0993 124.2466,43.6713 C119.9056,44.0723 115.3846,42.9613 111.6606,40.2083 Z" id="Stroke-12" stroke="#1F1A17" stroke-width="0.448"></path>
                    <path d="M149.2368,39.5931 L154.1468,36.4341 C155.9808,39.2481 158.1668,41.3561 161.3058,42.3381 C163.7778,43.1121 165.5768,42.5981 166.0808,40.9881 L166.1048,40.9101 C166.5848,39.3791 165.8878,38.3001 161.6648,35.6841 C156.5738,32.5381 153.4808,29.8911 155.1888,24.4351 L155.2138,24.3571 C156.7738,19.3721 161.8088,17.3291 167.4218,19.0861 C171.4238,20.3391 174.4458,22.6641 176.5318,25.7741 L171.9668,29.3431 C170.0618,26.8941 167.9868,25.1241 165.6728,24.3991 C163.3568,23.6741 161.8078,24.3531 161.3898,25.6881 L161.3658,25.7661 C160.7998,27.5711 161.7938,28.5291 166.1618,31.2331 C171.2798,34.4281 173.7938,37.4131 172.2938,42.2001 L172.2688,42.2801 C170.5608,47.7351 165.4428,49.4931 159.5158,47.6381 C155.3568,46.3361 151.6118,43.5691 149.2368,39.5931" id="Fill-14" fill="#1F1A17"></path>
                    <path d="M149.2368,39.5931 L154.1468,36.4341 C155.9808,39.2481 158.1668,41.3561 161.3058,42.3381 C163.7778,43.1121 165.5768,42.5981 166.0808,40.9881 L166.1048,40.9101 C166.5848,39.3791 165.8878,38.3001 161.6648,35.6841 C156.5738,32.5381 153.4808,29.8911 155.1888,24.4351 L155.2138,24.3571 C156.7738,19.3721 161.8088,17.3291 167.4218,19.0861 C171.4238,20.3391 174.4458,22.6641 176.5318,25.7741 L171.9668,29.3431 C170.0618,26.8941 167.9868,25.1241 165.6728,24.3991 C163.3568,23.6741 161.8078,24.3531 161.3898,25.6881 L161.3658,25.7661 C160.7998,27.5711 161.7938,28.5291 166.1618,31.2331 C171.2798,34.4281 173.7938,37.4131 172.2938,42.2001 L172.2688,42.2801 C170.5608,47.7351 165.4428,49.4931 159.5158,47.6381 C155.3568,46.3361 151.6118,43.5691 149.2368,39.5931 Z" id="Stroke-16" stroke="#1F1A17" stroke-width="0.448"></path>
                    <polygon id="Fill-18" fill="#1F1A17" points="190.5043 36.1224 183.1153 31.4124 186.2553 26.4864 206.3743 39.3114 203.2343 44.2374 195.8463 39.5284 183.5083 58.8844 178.1653 55.4774"></polygon>
                    <polygon id="Stroke-20" stroke="#1F1A17" stroke-width="0.448" points="190.5043 36.1224 183.1153 31.4124 186.2553 26.4864 206.3743 39.3114 203.2343 44.2374 195.8463 39.5284 183.5083 58.8844 178.1653 55.4774"></polygon>
                    <path d="M210.5688,67.2913 L214.9148,58.1863 L205.4288,61.6233 L210.5688,67.2913 Z M218.6448,50.9733 L222.5678,55.2993 L209.3778,83.9163 L204.9298,79.0113 L207.9448,72.7243 L199.7668,63.7053 L193.2148,66.0933 L188.8778,61.3103 L218.6448,50.9733 Z" id="Fill-22" fill="#1F1A17"></path>
                    <path d="M210.5688,67.2913 L214.9148,58.1863 L205.4288,61.6233 L210.5688,67.2913 Z M218.6448,50.9733 L222.5678,55.2993 L209.3778,83.9163 L204.9298,79.0113 L207.9448,72.7243 L199.7668,63.7053 L193.2148,66.0933 L188.8778,61.3103 L218.6448,50.9733 Z" id="Stroke-24" stroke="#1F1A17" stroke-width="0.448"></path>
                    <path d="M228.9086,91.9368 C230.1646,94.7538 232.3876,95.7008 234.6016,94.7118 L234.6786,94.6798 C237.1576,93.5748 237.6646,91.2768 236.4086,88.4588 L233.8466,82.7118 L226.2976,86.0778 L228.9086,91.9368 Z M236.4906,74.5988 L241.8476,86.6208 C243.3386,89.9628 243.5546,92.9748 242.5966,95.4718 C241.7836,97.5898 240.0696,99.2998 237.5906,100.4058 L237.5146,100.4388 C233.2696,102.3308 229.5826,101.2288 226.8516,98.4378 L220.3236,109.0458 L217.3096,102.2848 L223.2136,92.8988 L221.1876,88.3538 L212.7726,92.1038 L210.1946,86.3198 L236.4906,74.5988 Z" id="Fill-26" fill="#1F1A17"></path>
                    <path d="M228.9086,91.9368 C230.1646,94.7538 232.3876,95.7008 234.6016,94.7118 L234.6786,94.6798 C237.1576,93.5748 237.6646,91.2768 236.4086,88.4588 L233.8466,82.7118 L226.2976,86.0778 L228.9086,91.9368 Z M236.4906,74.5988 L241.8476,86.6208 C243.3386,89.9628 243.5546,92.9748 242.5966,95.4718 C241.7836,97.5898 240.0696,99.2998 237.5906,100.4058 L237.5146,100.4388 C233.2696,102.3308 229.5826,101.2288 226.8516,98.4378 L220.3236,109.0458 L217.3096,102.2848 L223.2136,92.8988 L221.1876,88.3538 L212.7726,92.1038 L210.1946,86.3198 L236.4906,74.5988 Z" id="Stroke-28" stroke="#1F1A17" stroke-width="0.448"></path>
                    <polygon id="Fill-30" fill="#9B7849" points="46.8129 179.4554 49.0659 182.8544 43.9519 197.5454 54.2699 190.7084 56.6809 194.3474 39.9229 205.4514 37.8439 202.3154 43.1199 187.1414 32.4659 194.1994 30.0549 190.5604"></polygon>
                    <path d="M50.3159,204.5521 L58.3499,196.3431 L61.5109,199.4351 L53.5569,207.5631 C51.2679,209.9041 51.2529,212.2581 53.1819,214.1471 C55.1109,216.0351 57.4259,216.0091 59.6559,213.7321 L67.7099,205.5001 L70.8709,208.5941 L62.9369,216.7001 C58.6779,221.0531 54.1469,220.7971 50.2889,217.0211 C46.4299,213.2451 46.1779,208.7811 50.3159,204.5521" id="Fill-32" fill="#9B7849"></path>
                    <polygon id="Fill-34" fill="#9B7849" points="74.3608 215.8636 69.2698 212.4686 71.5338 209.0746 85.3948 218.3206 83.1318 221.7156 78.0418 218.3186 69.1458 231.6556 65.4648 229.2006"></polygon>
                    <path d="M96.3832,228.5091 L96.4042,228.4561 C96.8212,227.3861 96.3612,226.4351 95.3182,226.0291 C94.2212,225.6001 93.1952,226.0931 92.7562,227.2161 L92.7362,227.2691 C92.4122,228.0991 92.4922,228.8401 92.9232,230.0261 C94.7952,230.0471 95.9232,229.6861 96.3832,228.5091 L96.3832,228.5091 Z M92.3132,238.2961 L90.1512,233.2591 C88.6682,233.4191 87.8052,234.1311 87.4492,235.0391 L87.4292,235.0941 C86.9172,236.4051 87.6692,237.7151 89.1942,238.3101 C90.1292,238.6761 91.1962,238.6311 92.3132,238.2961 L92.3132,238.2961 Z M93.6942,241.5491 C91.6782,242.2111 89.5632,242.3391 87.3952,241.4931 C83.8112,240.0931 81.9242,236.9511 83.2202,233.6331 L83.2412,233.5811 C84.1712,231.2001 86.1132,230.0171 88.8852,229.8661 C88.4772,228.2271 88.5352,226.8931 89.0372,225.6101 L89.0582,225.5551 C90.0612,222.9881 93.0402,221.4391 96.6522,222.8501 C99.8342,224.0921 101.1062,226.9931 100.0822,229.6151 L100.0612,229.6691 C99.0782,232.1841 96.9002,233.0281 94.2172,233.0281 L95.7332,236.4881 C96.7242,235.7641 97.7682,234.9091 98.8052,233.9881 L101.1802,236.8261 C99.9462,237.8561 98.6012,238.9341 97.1732,239.8251 L98.8522,243.6571 L95.0042,244.5881 L93.6942,241.5491 Z" id="Fill-36" fill="#9B7849"></path>
                    <polygon id="Fill-38" fill="#9B7849" points="110.2465 227.7103 125.3705 230.0883 124.7465 234.0613 113.9925 232.3693 113.3285 236.5983 122.8055 238.0863 122.1805 242.0593 112.7035 240.5693 111.4945 248.2593 107.1255 247.5713"></polygon>
                    <path d="M143.186,239.6741 L143.183,239.6161 C143.02,236.1741 140.361,233.4251 136.803,233.5931 C133.247,233.7611 130.913,236.6891 131.075,240.1301 L131.078,240.1881 C131.24,243.6301 133.899,246.3791 137.457,246.2111 C141.014,246.0441 143.348,243.1161 143.186,239.6741 M126.461,240.4631 L126.459,240.4061 C126.19,234.6971 130.472,229.8091 136.668,229.5171 C142.865,229.2251 147.529,233.6321 147.799,239.3411 L147.801,239.3991 C148.071,245.1071 143.788,249.9951 137.592,250.2881 C131.396,250.5811 126.731,246.1711 126.461,240.4631" id="Fill-40" fill="#9B7849"></path>
                    <path d="M167.8696,234.053 L167.8526,233.998 C166.8796,230.693 163.6436,228.653 160.2276,229.658 C156.8116,230.665 155.2386,234.063 156.2126,237.367 L156.2286,237.422 C157.2026,240.728 160.4376,242.768 163.8536,241.763 C167.2686,240.756 168.8426,237.359 167.8696,234.053 M151.8096,238.784 L151.7946,238.73 C150.1786,233.248 153.1806,227.484 159.1306,225.731 C165.0796,223.977 170.6566,227.155 172.2706,232.636 L172.2876,232.691 C173.9026,238.173 170.9006,243.937 164.9516,245.691 C159.0016,247.443 153.4256,244.266 151.8096,238.784" id="Fill-42" fill="#9B7849"></path>
                    <path d="M186.3129,232.1214 C189.4629,230.3404 190.3869,227.0144 188.6339,223.9124 L188.6069,223.8634 C186.8539,220.7634 183.4999,219.7894 180.3489,221.5684 L177.3739,223.2514 L183.3369,233.8024 L186.3129,232.1214 Z M171.5589,221.9524 L178.3849,218.0954 C183.8849,214.9844 189.8199,216.6114 192.6039,221.5384 L192.6319,221.5884 C195.4169,226.5144 193.7779,232.4884 188.2779,235.5974 L181.4519,239.4544 L171.5589,221.9524 Z" id="Fill-44" fill="#9B7849"></path>
                    <path d="M198.687,217.1595 L198.647,217.1175 C194.719,212.9635 194.633,206.5975 199.122,202.3545 C201.877,199.7495 204.396,199.1075 207.016,199.1615 L207.201,203.4555 C205.106,203.4975 203.365,203.9565 201.905,205.3395 C199.44,207.6685 199.6,211.3915 201.969,213.8965 L202.008,213.9385 C204.377,216.4445 208.084,216.8935 210.589,214.5255 C212.26,212.9455 212.651,211.3105 212.813,209.1805 L216.812,209.3125 C216.829,212.3415 216.107,214.9235 213.289,217.5885 C208.988,221.6555 202.655,221.3555 198.687,217.1595" id="Fill-46" fill="#9B7849"></path>
                    <path d="M223.2748,188.9153 L223.2268,188.8833 C220.3868,186.9323 216.5878,187.3903 214.5728,190.3243 C212.5568,193.2603 213.4788,196.8893 216.3198,198.8403 L216.3668,198.8723 C219.2078,200.8233 223.0048,200.3653 225.0208,197.4303 C227.0368,194.4953 226.1148,190.8653 223.2748,188.9153 M213.7968,202.7153 L213.7508,202.6843 C209.0398,199.4473 207.7328,193.0813 211.2448,187.9693 C214.7558,182.8553 221.0868,181.8043 225.7968,185.0403 L225.8438,185.0713 C230.5548,188.3073 231.8608,194.6733 228.3498,199.7863 C224.8378,204.8993 218.5068,205.9513 213.7968,202.7153" id="Fill-48" fill="#9B7849"></path>
                    <polygon id="Fill-50" fill="#9B7849" points="231.0746 185.7816 233.1566 181.6216 237.2656 183.6776 235.1826 187.8386"></polygon>
                    <path d="M224.7036,170.011 L225.3596,168.342 L229.0086,167.67 L226.7966,164.692 L227.4346,163.07 L234.3756,165.8 L233.7906,167.288 L229.1036,165.444 L231.3916,168.556 L231.3386,168.692 L227.5436,169.41 L232.2306,171.254 L231.6446,172.742 L224.7036,170.011 Z M224.0886,175.676 L223.2726,177.749 L221.8756,177.199 L224.1276,171.475 L225.5246,172.025 L224.7096,174.099 L230.2526,176.28 L229.6326,177.858 L224.0886,175.676 Z" id="Fill-52" fill="#9B7849"></path>
                    <path d="M0.2094,131.2913 C0.2094,59.2183 58.6364,0.7913 130.7094,0.7913 C202.7824,0.7913 261.2094,59.2183 261.2094,131.2913 C261.2094,203.3643 202.7824,261.7913 130.7094,261.7913 C58.6364,261.7913 0.2094,203.3643 0.2094,131.2913 Z" id="Stroke-54" stroke="#9B7849" stroke-width="6.418"></path>
                    <path d="M235.8784,110.1985 C239.0024,117.9465 240.7314,126.2715 241.5054,134.6785 C242.2514,143.0995 241.9404,151.6675 240.5134,160.1395 L235.2664,158.9475 C237.4574,151.1575 238.6584,143.0055 238.8164,134.7765 C238.9434,126.5545 238.1494,118.2285 235.8784,110.1985" id="Fill-56" fill="#9B7849"></path>
                    <path d="M24.5434,127.2571 C24.0624,131.4241 24.0434,135.6071 24.3494,139.7471 C24.6584,143.8881 25.3074,147.9871 26.2464,151.9991 C28.1304,160.0231 31.2214,167.6811 35.3174,174.6351 L30.1174,177.3221 C26.6034,169.3641 24.3354,160.9711 23.3614,152.4961 C22.8794,148.2591 22.7084,144.0011 22.8864,139.7721 C23.0654,135.5451 23.5814,131.3391 24.5434,127.2571" id="Fill-58" fill="#9B7849"></path>
                    <polygon id="Fill-60" fill="#1F1A17" points="36.5522 84.4915 36.7282 89.1425 41.2232 86.3075"></polygon>
                    <polygon id="Fill-62" fill="#1F1A17" points="29.35 105.3333 30.199 110.3343 34.021 107.1503"></polygon>
                    <polygon id="Fill-64" fill="#1F1A17" points="35.8637 101.1898 34.6727 95.9918 31.1917 99.3728"></polygon>
                    <polygon id="Fill-66" fill="#1F1A17" points="185.7973 43.6868 180.7263 43.5868 183.1403 47.9368"></polygon>
                    <polygon id="Fill-68" fill="#1F1A17" points="223.5356 80.5599 219.3486 77.6979 218.9846 82.6599"></polygon>
                    <polygon id="Fill-70" fill="#1F1A17" points="188.3246 51.2962 193.6526 51.0972 190.9816 47.0462"></polygon>
                    <polygon id="Fill-72" fill="#1F1A17" points="83.5102 41.9661 79.4162 45.3091 83.6302 46.9771"></polygon>
                    <polygon id="Fill-74" fill="#1F1A17" points="105.2924 38.348 107.6244 33.863 102.5394 34.587"></polygon>
                    <polygon id="Fill-76" fill="#1F1A17" points="201.1215 56.9329 196.4935 54.4019 196.5635 58.9839"></polygon>
                    <polygon id="Fill-78" fill="#1F1A17" points="212.7328 75.8851 217.7408 76.3291 215.1408 71.8581"></polygon>
                </g>
            </g>
        </g>
    </g>
</svg>